/* XPM */
static char *next[]={
"21 19 4 1",
". c None",
"# c #000000",
"b c #00c200",
"a c #ffffff",
".....................",
"..............#......",
"..............##.....",
"..............###....",
"...###############...",
"...###############...",
"..............###....",
"..............##.....",
"..............#......",
".....................",
"..aaaaaaaaaaaaaaaaa..",
"..abbbbbbbbbbbbbbba..",
"..abbbbbbbbbbbbbbba..",
"..abbbbbbbbbbbbbbba..",
"..abbbbbbbbbbbbbbba..",
"..abbbbbbbbbbbbbbba..",
"..abbbbbbbbbbbbbbba..",
"..aaaaaaaaaaaaaaaaa..",
"....................."};
