/* XPM */
static char *open[]={
"21 19 9 1",
". c None",
"# c #000000",
"f c #474600",
"e c #504e00",
"g c #585600",
"d c #838100",
"a c #ffff18",
"c c #ffff8b",
"b c #ffffbd",
".....................",
".....................",
"............####.....",
"...........#....#....",
"...........#....##.#.",
".................###.",
"..####..........####.",
"..#aaa#########.####.",
"..#abaaaaaaaaa#......",
"..#cababbabaca#......",
"..#abacaababab#......",
"..#cacaa############.",
"..#caca#ddddddddddd#.",
"..#aba#dddddddddde#..",
"..#ca#fdddddddddd#...",
"..#a#gdddddddddd#....",
"..##gddddddddde#.....",
"..##############.....",
"....................."};
