/* XPM */
static char *pause[]={
"21 19 3 1",
". c None",
"a c #000000",
"# c #ffff00",
".....................",
".....................",
".....................",
".........#a#.........",
"........##a##........",
".......###a###.......",
"......####a####......",
".....#####a#####.....",
"....######a######....",
"...#######a#######...",
"....######a######....",
".....#####a#####.....",
"......####a####......",
".......###a###.......",
"........##a##........",
".........#a#.........",
".....................",
".....................",
"....................."};
