/* XPM */
static char *saveAs[]={
"21 19 10 1",
". c None",
"# c #000000",
"d c #060900",
"e c #1e211e",
"b c #6a6900",
"a c #808080",
"h c #c3bf00",
"c c #dcdc00",
"f c #dcdcb2",
"g c #dcdcc3",
".....................",
".....................",
"..#################..",
"..#a#..........#aa#.#",
"..#a#.######...#aa#bc",
"..#a#..........###bcd",
"..#a#.########e##bcb#",
"..#a#........###bcb#.",
"..#a#........#c#cb#..",
"..#a#........#fc###..",
"..#a##########cgh##..",
"..#a###############..",
"..#aaa#############..",
"..#aaa##########aa#..",
"..#aaa######...#aa#..",
"..#aaa######...#aa#..",
"..#aaa######...#aa#..",
"..#################..",
"....................."};
