/* XPM */
static char * spotlightSmall_xpm[] = {
"16 16 210 2",
"  	c #818162",
". 	c #868664",
"+ 	c #7C7C5E",
"@ 	c #5E5E4A",
"# 	c #2C2C28",
"$ 	c #1E1E1E",
"% 	c #262424",
"& 	c #594C4C",
"* 	c #907777",
"= 	c #9B7F7F",
"- 	c #6A5959",
"; 	c #79795C",
"> 	c #888866",
", 	c #5C5C49",
"' 	c #554949",
") 	c #8D7474",
"! 	c #A18585",
"~ 	c #927878",
"{ 	c #443B3B",
"] 	c #686850",
"^ 	c #848463",
"/ 	c #8B8B68",
"( 	c #7B7B5D",
"_ 	c #5A5A48",
": 	c #524747",
"< 	c #887070",
"[ 	c #A28686",
"} 	c #A28585",
"| 	c #786464",
"1 	c #2A2727",
"2 	c #4A4A3C",
"3 	c #7A7A5D",
"4 	c #8A8A67",
"5 	c #8D8D69",
"6 	c #595947",
"7 	c #2D2D28",
"8 	c #272525",
"9 	c #4F4444",
"0 	c #826C6C",
"a 	c #A08484",
"b 	c #A78A8A",
"c 	c #977C7C",
"d 	c #201F1F",
"e 	c #696951",
"f 	c #848464",
"g 	c #8E8E6A",
"h 	c #898967",
"i 	c #5E5C4A",
"j 	c #564C48",
"k 	c #7C6767",
"l 	c #9D8181",
"m 	c #A88B8B",
"n 	c #A38686",
"o 	c #806A6A",
"p 	c #363131",
"q 	c #20201F",
"r 	c #4D4D3E",
"s 	c #7B7B5E",
"t 	c #91916C",
"u 	c #8F8E6C",
"v 	c #969073",
"w 	c #9E8C7E",
"x 	c #A08682",
"y 	c #A88A8A",
"z 	c #A98B8B",
"A 	c #987D7D",
"B 	c #625353",
"C 	c #252323",
"D 	c #1E2223",
"E 	c #30322E",
"F 	c #6A6B54",
"G 	c #868766",
"H 	c #91926E",
"I 	c #999974",
"J 	c #B9B597",
"K 	c #D0C7AF",
"L 	c #D5C6B2",
"M 	c #C9B3A7",
"N 	c #B29794",
"O 	c #A48889",
"P 	c #856F70",
"Q 	c #443D3E",
"R 	c #1F2223",
"S 	c #1E262A",
"T 	c #21292D",
"U 	c #515448",
"V 	c #7D8065",
"W 	c #939574",
"X 	c #AEAC8C",
"Y 	c #E8E1CB",
"Z 	c #F8F0DF",
"` 	c #FBF8EC",
" .	c #E1E6E4",
"..	c #BAB6BA",
"+.	c #A08A88",
"@.	c #6C5E60",
"#.	c #2E3134",
"$.	c #1E262C",
"%.	c #1E2A30",
"&.	c #353C3C",
"*.	c #747863",
"=.	c #A5A286",
"-.	c #D4CDB5",
";.	c #E6DCC8",
">.	c #F8F4E7",
",.	c #FAF9EE",
"'.	c #F0EEE8",
").	c #BFB4B0",
"!.	c #A99990",
"~.	c #5C5858",
"{.	c #232D32",
"].	c #1E2C33",
"^.	c #1F2D34",
"/.	c #30383C",
"(.	c #767469",
"_.	c #B8B09A",
":.	c #D4D3CA",
"<.	c #F4F1E6",
"[.	c #FEFDF3",
"}.	c #DFE1DD",
"|.	c #C2C8CA",
"1.	c #C3B2A7",
"2.	c #A69D8E",
"3.	c #696B5F",
"4.	c #333D3D",
"5.	c #1F2E36",
"6.	c #2E373E",
"7.	c #4D4F58",
"8.	c #7F7B7F",
"9.	c #B8AFA1",
"0.	c #BBCBCC",
"a.	c #C9D8DC",
"b.	c #E2E3DE",
"c.	c #8EA3B5",
"d.	c #95A5B5",
"e.	c #A8A7A7",
"f.	c #848F87",
"g.	c #607C72",
"h.	c #516962",
"i.	c #324143",
"j.	c #2B3A45",
"k.	c #3F5467",
"l.	c #547490",
"m.	c #6892B3",
"n.	c #90C0CE",
"o.	c #A4DCD9",
"p.	c #A0CECE",
"q.	c #90BCCC",
"r.	c #7BAAC7",
"s.	c #84B9D9",
"t.	c #81B1CB",
"u.	c #697A7D",
"v.	c #575F54",
"w.	c #506058",
"x.	c #3E6060",
"y.	c #284046",
"z.	c #2E4A5E",
"A.	c #38627E",
"B.	c #43779B",
"C.	c #4B89B2",
"D.	c #58B8DB",
"E.	c #67E4FC",
"F.	c #70DFED",
"G.	c #71C5C9",
"H.	c #6BD0E6",
"I.	c #65BCDF",
"J.	c #5BA0BB",
"K.	c #508A92",
"L.	c #488785",
"M.	c #3E8788",
"N.	c #326C70",
"O.	c #264950",
"P.	c #26485B",
"Q.	c #2C5671",
"R.	c #306586",
"S.	c #347197",
"T.	c #367EA7",
"U.	c #399CC3",
"V.	c #3CB8DA",
"W.	c #3EC2E1",
"X.	c #3EBEDA",
"Y.	c #3AB3CA",
"Z.	c #369DAA",
"`.	c #32888E",
" +	c #2E787E",
".+	c #29646B",
"++	c #244C54",
"@+	c #1F3841",
"#+	c #203A48",
"$+	c #224253",
"%+	c #23495E",
"&+	c #254F68",
"*+	c #25536E",
"=+	c #25546F",
"-+	c #24546E",
";+	c #22556B",
">+	c #225364",
",+	c #214F5A",
"'+	c #204B54",
")+	c #20464F",
"!+	c #203F48",
"~+	c #1F3740",
"{+	c #1E323B",
"]+	c #1E313A",
"^+	c #1E313B",
"/+	c #1E323D",
"(+	c #1E343E",
"_+	c #1E3440",
":+	c #1E333E",
"<+	c #1E313C",
"  . + @ # $ $ $ $ $ $ % & * = - ",
"; > > + , # $ $ $ $ % ' ) ! ~ { ",
"] ^ / > ( _ # $ $ % : < [ } | 1 ",
"2 3 4 5 > 3 6 7 8 9 0 a b c ' d ",
"7 e f g g h ( i j k l m n o p $ ",
"q r s / t t u v w x y z A B C $ ",
"D E F G H I J K L M N O P Q R D ",
"S T U V W X Y Z `  ...+.@.#.$.S ",
"%.%.&.*.=.-.;.>.,.'.).!.~.{.%.%.",
"].^./.(._.:.<.[.}.|.1.2.3.4.^.].",
"5.6.7.8.9.0.a.b.c.d.e.f.g.h.i.5.",
"j.k.l.m.n.o.p.q.r.s.t.u.v.w.x.y.",
"z.A.B.C.D.E.F.G.H.I.J.K.L.M.N.O.",
"P.Q.R.S.T.U.V.W.X.Y.Z.`. +.+++@+",
"#+$+%+&+*+=+-+;+>+,+'+)+!+~+{+]+",
"^+/+(+_+_+_+:+<+^+^+^+^+^+^+]+]+"};
