/* XPM */
static char *stop[]={
"21 19 4 1",
". c None",
"# c #d20000",
"b c #de0000",
"a c #ffffff",
".....................",
".....###########.....",
"....#############....",
"...###############...",
"..#################..",
".###################.",
".###################.",
".##aaa#aaa#aaa#aaa##.",
".##a####a##a#a#a#a##.",
".##a####a##a#a#a#a##.",
".##aaa##a##a#a#aaa##.",
".####a##a##a#a#abb##.",
".##aaa##a##aaa#a#b##.",
".###################.",
".###################.",
"..#################..",
"...###############...",
"....#############....",
".....###########....."};
