/* XPM */
static char *trackOne[]={
"21 19 2 1",
". c None",
"# c #000000",
".....................",
".....................",
".#############.......",
".#############.......",
"......###............",
"......###............",
"......###............",
"......###............",
"......###............",
"......###............",
"......###............",
"......###............",
"......###............",
"......###........#...",
"......###........##..",
"......###..#########.",
"......###........##..",
".................#...",
"....................."};
