/* XPM */
static char *undo[]={
"21 19 3 1",
". c None",
"a c #00007d",
"# c #bdbdfc",
".....................",
".....................",
".....................",
".....................",
".........#####.......",
"........#aaaaa#......",
"....a#.#a#####a#.....",
"....a##a#.....#a#....",
"....a#a#......#a#....",
"....aa###.....#a#....",
"....aaaaa.....#a#....",
"..............#a#....",
"..............#a#....",
".............#a#.....",
"............aa#......",
"............##.......",
".....................",
".....................",
"....................."};
