/* XPM */
static char *zoomin6[]={
"21 19 4 1",
". c None",
"# c #000000",
"a c #a8dcff",
"b c #c0c000",
".....................",
".....................",
".....#####...........",
"....#aaaaa#..........",
"...#aaaaaaa#.........",
"..#aaaaaaaaa#........",
"..#aaaaaaaaa#........",
"..#aaaaaaaaa#........",
"..#aaaaaaaaa#........",
"..#aaaaaaaaa#........",
"...#aaaaaaa#b#.......",
"....#aaaa##bbb#......",
"...#.#####.#bbb#.....",
"...#........#bbb#....",
"...#.........#bbb#...",
"#######.......##bb#..",
"...#............###..",
"...#.............#...",
"...#................."};
